<svg xmlns="http://www.w3.org/2000/svg"><defs>
    <style>
      .a {
        stroke: #231f20;
        stroke-miterlimit: 10;
      }
    </style>
  </defs><symbol id="icon-close" viewBox="0 0 22.2 22.2">
  <title>close</title>
  <polygon points="22.2 2.8 19.4 0 11.1 8.3 2.8 0 0 2.8 8.3 11.1 0 19.4 2.8 22.2 11.1 13.9 19.4 22.2 22.2 19.4 13.9 11.1 22.2 2.8"/>
</symbol><symbol id="icon-facebook" viewBox="0 0 8.67 18.94">
  <title>facebook</title>
  <path d="M6.28,3.36h2.4V0H5.79C2.66.18,1.54,2.39,1.95,6.11H0V9.63H2v9.31H5.8V9.63H8.65V6.11H5.79C5.77,5.07,5.75,3.71,6.28,3.36Z"/>
</symbol><symbol id="icon-htmlacademy" viewBox="0 0 154.38 195.33">
  
  <title>htmlacademy</title>
  <path class="a" d="M78,.59,77.19.5.5,8.54V149.11l76.69,45.63,76.69-45.63V8.54Zm65.86,142.82L77.19,183.07,10.53,143.41V85.79L76.91,125.3l.11,7.16-45.53-27.1-.07,7,45.71,27.47.11,7.35-45.7-27.19-.07,7,45.71,27.47,46.15-27.62v-7l-.06,0V97.1l20.57-12.28Zm-.05-66.06L125.56,88.09l-8.42,5L77,69.17l-.07,7,34.32,20.41-.3.18-.74.44L105.33,100,77,83.16l-.07,7,22.36,13.3L94,106.94l-.13.08L77,97.06l-.07,7L88,110.54l-11.29,6.78-66-39.26L76.82,38.31h0Zm.05-7-67-39.51h0L10.53,70.31V17.58l66.66-7,66.66,7Z"/>
</symbol><symbol id="icon-menu" viewBox="0 0 22.93 21.98">
  <title>menu</title>
  <g>
    <rect width="22.93" height="3.96"/>
    <rect y="9.01" width="22.93" height="3.96"/>
    <rect y="18.02" width="22.93" height="3.96"/>
  </g>
</symbol><symbol id="icon-twitter" viewBox="0 0 17.5 14.66">
  <title>twitter</title>
  <path d="M11.28.15A3.29,3.29,0,0,1,15,1.3c.69-.23,1.37-.47,2.07-.69a2.26,2.26,0,0,1-.88,1.73,1.64,1.64,0,0,0,1.34-.48,2.9,2.9,0,0,1-1.61,2c-.24,6.59-3.27,11-10.38,10.82H5c-.42,0-4.29-.45-5-1.84a6.57,6.57,0,0,0,4.84-1.15c-1-.29-2.76-.46-3.07-2.88A2.14,2.14,0,0,0,3,8.9C1.76,8.07.38,7.37.46,5.22a2,2,0,0,0,1.38.46C1.12,5.44-.19,2.4.92.84,2.79,2.65,4.77,4.36,8.29,4.53,8.51,2.29,9.46.79,11.28.15Z"/>
</symbol><symbol id="icon-youtube" viewBox="0 0 19.98 14.02">
  <title>youtube</title>
  <path d="M17.14,0H2.83A2.84,2.84,0,0,0,0,2.83v8.35A2.84,2.84,0,0,0,2.83,14H17.14A2.84,2.84,0,0,0,20,11.18V2.83A2.84,2.84,0,0,0,17.14,0ZM7,10.39V3.62L13.8,7Z"/>
</symbol></svg>